<mxfile host="Electron" modified="2024-05-20T12:48:23.570Z" agent="Mozilla/5.0 (Windows NT 10.0; Win64; x64) AppleWebKit/537.36 (KHTML, like Gecko) draw.io/24.2.5 Chrome/120.0.6099.109 Electron/28.1.0 Safari/537.36" etag="9Ov2KJScDiyCJq3qbUXe" version="24.2.5" type="device">
  <diagram name="第 1 页" id="jQvQ4ThnZdSqsj7YFSQK">
    <mxGraphModel dx="753" dy="490" grid="1" gridSize="10" guides="1" tooltips="1" connect="1" arrows="1" fold="1" page="1" pageScale="1" pageWidth="827" pageHeight="1169" math="0" shadow="0">
      <root>
        <mxCell id="0" />
        <mxCell id="1" parent="0" />
        <mxCell id="DP3_oWpCl_bcBycyR9Li-1" value="l m n o p q r" style="rounded=0;whiteSpace=wrap;html=1;fontSize=15;" vertex="1" parent="1">
          <mxGeometry x="100" y="140" width="130" height="40" as="geometry" />
        </mxCell>
        <mxCell id="DP3_oWpCl_bcBycyR9Li-2" value="" style="endArrow=classic;html=1;rounded=0;" edge="1" parent="1">
          <mxGeometry width="50" height="50" relative="1" as="geometry">
            <mxPoint x="100" y="149.66" as="sourcePoint" />
            <mxPoint x="60" y="149.66" as="targetPoint" />
          </mxGeometry>
        </mxCell>
        <mxCell id="DP3_oWpCl_bcBycyR9Li-3" value="" style="endArrow=classic;html=1;rounded=0;" edge="1" parent="1">
          <mxGeometry width="50" height="50" relative="1" as="geometry">
            <mxPoint x="60" y="169.66" as="sourcePoint" />
            <mxPoint x="100" y="169.66" as="targetPoint" />
          </mxGeometry>
        </mxCell>
        <mxCell id="DP3_oWpCl_bcBycyR9Li-4" value="" style="endArrow=classic;html=1;rounded=0;" edge="1" parent="1">
          <mxGeometry width="50" height="50" relative="1" as="geometry">
            <mxPoint x="229" y="149.66" as="sourcePoint" />
            <mxPoint x="269" y="149.66" as="targetPoint" />
          </mxGeometry>
        </mxCell>
        <mxCell id="DP3_oWpCl_bcBycyR9Li-5" value="" style="endArrow=classic;html=1;rounded=0;" edge="1" parent="1">
          <mxGeometry width="50" height="50" relative="1" as="geometry">
            <mxPoint x="269" y="169.66" as="sourcePoint" />
            <mxPoint x="229" y="169.66" as="targetPoint" />
          </mxGeometry>
        </mxCell>
        <mxCell id="DP3_oWpCl_bcBycyR9Li-6" value="" style="endArrow=none;dashed=1;html=1;dashPattern=1 3;strokeWidth=2;rounded=0;" edge="1" parent="1">
          <mxGeometry width="50" height="50" relative="1" as="geometry">
            <mxPoint x="170" y="200" as="sourcePoint" />
            <mxPoint x="170" y="110" as="targetPoint" />
          </mxGeometry>
        </mxCell>
        <mxCell id="DP3_oWpCl_bcBycyR9Li-7" value="" style="endArrow=classic;html=1;rounded=0;" edge="1" parent="1">
          <mxGeometry width="50" height="50" relative="1" as="geometry">
            <mxPoint x="164.66" y="100" as="sourcePoint" />
            <mxPoint x="164.66" y="140" as="targetPoint" />
          </mxGeometry>
        </mxCell>
        <mxCell id="DP3_oWpCl_bcBycyR9Li-8" value="叶子结点" style="text;html=1;align=center;verticalAlign=middle;whiteSpace=wrap;rounded=0;" vertex="1" parent="1">
          <mxGeometry x="135" y="200" width="60" height="30" as="geometry" />
        </mxCell>
        <mxCell id="DP3_oWpCl_bcBycyR9Li-9" value="" style="shape=flexArrow;endArrow=classic;html=1;rounded=0;width=4.137931034482759;endSize=11.193103448275863;endWidth=7.491082045184305;" edge="1" parent="1">
          <mxGeometry width="50" height="50" relative="1" as="geometry">
            <mxPoint x="280" y="159.66" as="sourcePoint" />
            <mxPoint x="360" y="160" as="targetPoint" />
          </mxGeometry>
        </mxCell>
        <mxCell id="DP3_oWpCl_bcBycyR9Li-10" value="分裂" style="text;html=1;align=center;verticalAlign=middle;resizable=0;points=[];autosize=1;strokeColor=none;fillColor=none;" vertex="1" parent="1">
          <mxGeometry x="290" y="128" width="50" height="30" as="geometry" />
        </mxCell>
        <mxCell id="DP3_oWpCl_bcBycyR9Li-11" value="" style="curved=1;endArrow=classic;html=1;rounded=0;dashed=1;exitX=-0.007;exitY=0.632;exitDx=0;exitDy=0;exitPerimeter=0;" edge="1" parent="1" source="DP3_oWpCl_bcBycyR9Li-12">
          <mxGeometry width="50" height="50" relative="1" as="geometry">
            <mxPoint x="210" y="80" as="sourcePoint" />
            <mxPoint x="170" y="140" as="targetPoint" />
            <Array as="points">
              <mxPoint x="190" y="110" />
              <mxPoint x="200" y="130" />
            </Array>
          </mxGeometry>
        </mxCell>
        <mxCell id="DP3_oWpCl_bcBycyR9Li-12" value="插入“abcd&quot;" style="text;html=1;align=center;verticalAlign=middle;resizable=0;points=[];autosize=1;strokeColor=none;fillColor=none;" vertex="1" parent="1">
          <mxGeometry x="220" y="90" width="80" height="30" as="geometry" />
        </mxCell>
        <mxCell id="DP3_oWpCl_bcBycyR9Li-13" value="l m n o" style="rounded=0;whiteSpace=wrap;html=1;fontSize=15;" vertex="1" parent="1">
          <mxGeometry x="400" y="140" width="81" height="40" as="geometry" />
        </mxCell>
        <mxCell id="DP3_oWpCl_bcBycyR9Li-16" value="a b c d" style="rounded=0;whiteSpace=wrap;html=1;fontSize=15;" vertex="1" parent="1">
          <mxGeometry x="510" y="140" width="81" height="40" as="geometry" />
        </mxCell>
        <mxCell id="DP3_oWpCl_bcBycyR9Li-17" value="p q r" style="rounded=0;whiteSpace=wrap;html=1;fontSize=15;" vertex="1" parent="1">
          <mxGeometry x="620" y="140" width="81" height="40" as="geometry" />
        </mxCell>
        <mxCell id="DP3_oWpCl_bcBycyR9Li-18" value="" style="endArrow=classic;html=1;rounded=0;" edge="1" parent="1">
          <mxGeometry width="50" height="50" relative="1" as="geometry">
            <mxPoint x="701" y="149.66" as="sourcePoint" />
            <mxPoint x="741" y="149.66" as="targetPoint" />
          </mxGeometry>
        </mxCell>
        <mxCell id="DP3_oWpCl_bcBycyR9Li-19" value="" style="endArrow=classic;html=1;rounded=0;" edge="1" parent="1">
          <mxGeometry width="50" height="50" relative="1" as="geometry">
            <mxPoint x="741" y="169.66" as="sourcePoint" />
            <mxPoint x="701" y="169.66" as="targetPoint" />
          </mxGeometry>
        </mxCell>
        <mxCell id="DP3_oWpCl_bcBycyR9Li-20" value="" style="endArrow=classic;html=1;rounded=0;" edge="1" parent="1">
          <mxGeometry width="50" height="50" relative="1" as="geometry">
            <mxPoint x="400" y="149.66" as="sourcePoint" />
            <mxPoint x="360" y="149.66" as="targetPoint" />
          </mxGeometry>
        </mxCell>
        <mxCell id="DP3_oWpCl_bcBycyR9Li-21" value="" style="endArrow=classic;html=1;rounded=0;" edge="1" parent="1">
          <mxGeometry width="50" height="50" relative="1" as="geometry">
            <mxPoint x="360" y="169.66" as="sourcePoint" />
            <mxPoint x="400" y="169.66" as="targetPoint" />
          </mxGeometry>
        </mxCell>
        <mxCell id="DP3_oWpCl_bcBycyR9Li-22" value="" style="endArrow=classic;html=1;rounded=0;" edge="1" parent="1">
          <mxGeometry width="50" height="50" relative="1" as="geometry">
            <mxPoint x="510" y="150" as="sourcePoint" />
            <mxPoint x="481" y="149.66" as="targetPoint" />
          </mxGeometry>
        </mxCell>
        <mxCell id="DP3_oWpCl_bcBycyR9Li-23" value="" style="endArrow=classic;html=1;rounded=0;" edge="1" parent="1">
          <mxGeometry width="50" height="50" relative="1" as="geometry">
            <mxPoint x="481" y="169.66" as="sourcePoint" />
            <mxPoint x="510" y="170" as="targetPoint" />
          </mxGeometry>
        </mxCell>
        <mxCell id="DP3_oWpCl_bcBycyR9Li-24" value="" style="endArrow=classic;html=1;rounded=0;" edge="1" parent="1">
          <mxGeometry width="50" height="50" relative="1" as="geometry">
            <mxPoint x="620" y="150" as="sourcePoint" />
            <mxPoint x="591" y="149.66" as="targetPoint" />
          </mxGeometry>
        </mxCell>
        <mxCell id="DP3_oWpCl_bcBycyR9Li-25" value="" style="endArrow=classic;html=1;rounded=0;" edge="1" parent="1">
          <mxGeometry width="50" height="50" relative="1" as="geometry">
            <mxPoint x="591" y="169.66" as="sourcePoint" />
            <mxPoint x="620" y="170" as="targetPoint" />
          </mxGeometry>
        </mxCell>
        <mxCell id="DP3_oWpCl_bcBycyR9Li-32" value="" style="rounded=0;whiteSpace=wrap;html=1;" vertex="1" parent="1">
          <mxGeometry x="115" y="80" width="20" height="20" as="geometry" />
        </mxCell>
        <mxCell id="DP3_oWpCl_bcBycyR9Li-34" value="" style="rounded=0;whiteSpace=wrap;html=1;fillColor=#000000;fontColor=#333333;strokeColor=#666666;gradientColor=none;fillStyle=hatch;" vertex="1" parent="1">
          <mxGeometry x="155" y="80" width="20" height="20" as="geometry" />
        </mxCell>
        <mxCell id="DP3_oWpCl_bcBycyR9Li-36" value="" style="rounded=0;whiteSpace=wrap;html=1;" vertex="1" parent="1">
          <mxGeometry x="195" y="80" width="20" height="20" as="geometry" />
        </mxCell>
        <mxCell id="DP3_oWpCl_bcBycyR9Li-37" value="" style="rounded=0;whiteSpace=wrap;html=1;" vertex="1" parent="1">
          <mxGeometry x="501" y="80" width="20" height="20" as="geometry" />
        </mxCell>
        <mxCell id="DP3_oWpCl_bcBycyR9Li-58" style="rounded=0;orthogonalLoop=1;jettySize=auto;html=1;exitX=0.5;exitY=1;exitDx=0;exitDy=0;" edge="1" parent="1" source="DP3_oWpCl_bcBycyR9Li-38" target="DP3_oWpCl_bcBycyR9Li-13">
          <mxGeometry relative="1" as="geometry" />
        </mxCell>
        <mxCell id="DP3_oWpCl_bcBycyR9Li-38" value="" style="rounded=0;whiteSpace=wrap;html=1;fillStyle=hatch;fillColor=#000000;" vertex="1" parent="1">
          <mxGeometry x="521" y="80" width="20" height="20" as="geometry" />
        </mxCell>
        <mxCell id="DP3_oWpCl_bcBycyR9Li-60" style="rounded=0;orthogonalLoop=1;jettySize=auto;html=1;entryX=0.5;entryY=0;entryDx=0;entryDy=0;exitX=0.5;exitY=1;exitDx=0;exitDy=0;" edge="1" parent="1" source="DP3_oWpCl_bcBycyR9Li-40" target="DP3_oWpCl_bcBycyR9Li-17">
          <mxGeometry relative="1" as="geometry" />
        </mxCell>
        <mxCell id="DP3_oWpCl_bcBycyR9Li-40" value="" style="rounded=0;whiteSpace=wrap;html=1;fillColor=#000000;fontColor=#333333;strokeColor=#666666;fillStyle=hatch;" vertex="1" parent="1">
          <mxGeometry x="561" y="80" width="20" height="20" as="geometry" />
        </mxCell>
        <mxCell id="DP3_oWpCl_bcBycyR9Li-41" value="" style="rounded=0;whiteSpace=wrap;html=1;" vertex="1" parent="1">
          <mxGeometry x="601" y="80" width="20" height="20" as="geometry" />
        </mxCell>
        <mxCell id="DP3_oWpCl_bcBycyR9Li-42" value="内部节点" style="text;html=1;align=center;verticalAlign=middle;whiteSpace=wrap;rounded=0;" vertex="1" parent="1">
          <mxGeometry x="28" y="77.5" width="80" height="25" as="geometry" />
        </mxCell>
        <mxCell id="DP3_oWpCl_bcBycyR9Li-44" value="叶子结点1" style="text;html=1;align=center;verticalAlign=middle;whiteSpace=wrap;rounded=0;" vertex="1" parent="1">
          <mxGeometry x="410.5" y="200" width="60" height="30" as="geometry" />
        </mxCell>
        <mxCell id="DP3_oWpCl_bcBycyR9Li-45" value="叶子结点2" style="text;html=1;align=center;verticalAlign=middle;whiteSpace=wrap;rounded=0;" vertex="1" parent="1">
          <mxGeometry x="521" y="200" width="60" height="30" as="geometry" />
        </mxCell>
        <mxCell id="DP3_oWpCl_bcBycyR9Li-46" value="叶子结点3" style="text;html=1;align=center;verticalAlign=middle;whiteSpace=wrap;rounded=0;" vertex="1" parent="1">
          <mxGeometry x="630.5" y="200" width="60" height="30" as="geometry" />
        </mxCell>
        <mxCell id="DP3_oWpCl_bcBycyR9Li-48" value="" style="rounded=0;whiteSpace=wrap;html=1;" vertex="1" parent="1">
          <mxGeometry x="481" y="80" width="20" height="20" as="geometry" />
        </mxCell>
        <mxCell id="DP3_oWpCl_bcBycyR9Li-51" value="" style="rounded=0;whiteSpace=wrap;html=1;" vertex="1" parent="1">
          <mxGeometry x="135" y="80" width="20" height="20" as="geometry" />
        </mxCell>
        <mxCell id="DP3_oWpCl_bcBycyR9Li-52" value="" style="rounded=0;whiteSpace=wrap;html=1;" vertex="1" parent="1">
          <mxGeometry x="175" y="80" width="20" height="20" as="geometry" />
        </mxCell>
        <mxCell id="DP3_oWpCl_bcBycyR9Li-59" style="edgeStyle=orthogonalEdgeStyle;rounded=0;orthogonalLoop=1;jettySize=auto;html=1;entryX=0.5;entryY=0;entryDx=0;entryDy=0;" edge="1" parent="1" source="DP3_oWpCl_bcBycyR9Li-54" target="DP3_oWpCl_bcBycyR9Li-16">
          <mxGeometry relative="1" as="geometry" />
        </mxCell>
        <mxCell id="DP3_oWpCl_bcBycyR9Li-54" value="" style="rounded=0;whiteSpace=wrap;html=1;fillStyle=hatch;fillColor=#000000;" vertex="1" parent="1">
          <mxGeometry x="541" y="80" width="20" height="20" as="geometry" />
        </mxCell>
        <mxCell id="DP3_oWpCl_bcBycyR9Li-55" value="" style="rounded=0;whiteSpace=wrap;html=1;" vertex="1" parent="1">
          <mxGeometry x="581" y="80" width="20" height="20" as="geometry" />
        </mxCell>
        <mxCell id="DP3_oWpCl_bcBycyR9Li-61" value="" style="rounded=0;whiteSpace=wrap;html=1;" vertex="1" parent="1">
          <mxGeometry x="128" y="335" width="20" height="20" as="geometry" />
        </mxCell>
        <mxCell id="DP3_oWpCl_bcBycyR9Li-62" value="" style="rounded=0;whiteSpace=wrap;html=1;fillStyle=hatch;fillColor=#000000;" vertex="1" parent="1">
          <mxGeometry x="148" y="335" width="20" height="20" as="geometry" />
        </mxCell>
        <mxCell id="DP3_oWpCl_bcBycyR9Li-63" value="" style="rounded=0;whiteSpace=wrap;html=1;fillColor=#000000;fontColor=#333333;strokeColor=#666666;fillStyle=hatch;" vertex="1" parent="1">
          <mxGeometry x="188" y="335" width="20" height="20" as="geometry" />
        </mxCell>
        <mxCell id="DP3_oWpCl_bcBycyR9Li-64" value="" style="rounded=0;whiteSpace=wrap;html=1;" vertex="1" parent="1">
          <mxGeometry x="228" y="335" width="20" height="20" as="geometry" />
        </mxCell>
        <mxCell id="DP3_oWpCl_bcBycyR9Li-65" value="内部节点" style="text;html=1;align=center;verticalAlign=middle;whiteSpace=wrap;rounded=0;" vertex="1" parent="1">
          <mxGeometry x="42" y="330" width="60" height="30" as="geometry" />
        </mxCell>
        <mxCell id="DP3_oWpCl_bcBycyR9Li-66" value="" style="rounded=0;whiteSpace=wrap;html=1;" vertex="1" parent="1">
          <mxGeometry x="108" y="335" width="20" height="20" as="geometry" />
        </mxCell>
        <mxCell id="DP3_oWpCl_bcBycyR9Li-67" value="" style="rounded=0;whiteSpace=wrap;html=1;fillStyle=hatch;fillColor=#000000;" vertex="1" parent="1">
          <mxGeometry x="168" y="335" width="20" height="20" as="geometry" />
        </mxCell>
        <mxCell id="DP3_oWpCl_bcBycyR9Li-68" value="" style="rounded=0;whiteSpace=wrap;html=1;" vertex="1" parent="1">
          <mxGeometry x="208" y="335" width="20" height="20" as="geometry" />
        </mxCell>
        <mxCell id="DP3_oWpCl_bcBycyR9Li-69" value="" style="rounded=0;whiteSpace=wrap;html=1;" vertex="1" parent="1">
          <mxGeometry x="128" y="275" width="20" height="20" as="geometry" />
        </mxCell>
        <mxCell id="DP3_oWpCl_bcBycyR9Li-76" style="rounded=0;orthogonalLoop=1;jettySize=auto;html=1;entryX=0.5;entryY=0;entryDx=0;entryDy=0;exitX=0.5;exitY=1;exitDx=0;exitDy=0;" edge="1" parent="1" source="DP3_oWpCl_bcBycyR9Li-72" target="DP3_oWpCl_bcBycyR9Li-66">
          <mxGeometry relative="1" as="geometry" />
        </mxCell>
        <mxCell id="DP3_oWpCl_bcBycyR9Li-72" value="" style="rounded=0;whiteSpace=wrap;html=1;fillStyle=hatch;fillColor=#000000;" vertex="1" parent="1">
          <mxGeometry x="148" y="275" width="20" height="20" as="geometry" />
        </mxCell>
        <mxCell id="DP3_oWpCl_bcBycyR9Li-73" value="" style="rounded=0;whiteSpace=wrap;html=1;" vertex="1" parent="1">
          <mxGeometry x="188" y="275" width="20" height="20" as="geometry" />
        </mxCell>
        <mxCell id="DP3_oWpCl_bcBycyR9Li-74" value="" style="rounded=0;whiteSpace=wrap;html=1;" vertex="1" parent="1">
          <mxGeometry x="168" y="275" width="20" height="20" as="geometry" />
        </mxCell>
        <mxCell id="DP3_oWpCl_bcBycyR9Li-75" value="内部节点" style="text;html=1;align=center;verticalAlign=middle;whiteSpace=wrap;rounded=0;" vertex="1" parent="1">
          <mxGeometry x="42" y="270" width="60" height="30" as="geometry" />
        </mxCell>
        <mxCell id="DP3_oWpCl_bcBycyR9Li-77" value="" style="shape=flexArrow;endArrow=classic;html=1;rounded=0;width=4.137931034482759;endSize=11.193103448275863;endWidth=7.491082045184305;" edge="1" parent="1">
          <mxGeometry width="50" height="50" relative="1" as="geometry">
            <mxPoint x="260" y="341.65999999999997" as="sourcePoint" />
            <mxPoint x="340" y="342" as="targetPoint" />
          </mxGeometry>
        </mxCell>
        <mxCell id="DP3_oWpCl_bcBycyR9Li-78" value="分裂" style="text;html=1;align=center;verticalAlign=middle;resizable=0;points=[];autosize=1;strokeColor=none;fillColor=none;" vertex="1" parent="1">
          <mxGeometry x="270" y="310" width="50" height="30" as="geometry" />
        </mxCell>
        <mxCell id="DP3_oWpCl_bcBycyR9Li-81" value="大于树阶，对半分" style="text;html=1;align=center;verticalAlign=middle;resizable=0;points=[];autosize=1;strokeColor=none;fillColor=none;" vertex="1" parent="1">
          <mxGeometry x="118" y="360" width="120" height="30" as="geometry" />
        </mxCell>
        <mxCell id="DP3_oWpCl_bcBycyR9Li-82" value="" style="rounded=0;whiteSpace=wrap;html=1;" vertex="1" parent="1">
          <mxGeometry x="441" y="340" width="20" height="20" as="geometry" />
        </mxCell>
        <mxCell id="DP3_oWpCl_bcBycyR9Li-83" value="" style="rounded=0;whiteSpace=wrap;html=1;fillStyle=hatch;fillColor=#000000;" vertex="1" parent="1">
          <mxGeometry x="461" y="340" width="20" height="20" as="geometry" />
        </mxCell>
        <mxCell id="DP3_oWpCl_bcBycyR9Li-84" value="" style="rounded=0;whiteSpace=wrap;html=1;fillColor=#000000;fontColor=#333333;strokeColor=#666666;fillStyle=hatch;" vertex="1" parent="1">
          <mxGeometry x="550" y="340" width="20" height="20" as="geometry" />
        </mxCell>
        <mxCell id="DP3_oWpCl_bcBycyR9Li-85" value="" style="rounded=0;whiteSpace=wrap;html=1;" vertex="1" parent="1">
          <mxGeometry x="590" y="340" width="20" height="20" as="geometry" />
        </mxCell>
        <mxCell id="DP3_oWpCl_bcBycyR9Li-86" value="内部节点" style="text;html=1;align=center;verticalAlign=middle;whiteSpace=wrap;rounded=0;" vertex="1" parent="1">
          <mxGeometry x="355" y="335" width="60" height="30" as="geometry" />
        </mxCell>
        <mxCell id="DP3_oWpCl_bcBycyR9Li-87" value="" style="rounded=0;whiteSpace=wrap;html=1;" vertex="1" parent="1">
          <mxGeometry x="421" y="340" width="20" height="20" as="geometry" />
        </mxCell>
        <mxCell id="DP3_oWpCl_bcBycyR9Li-88" value="" style="rounded=0;whiteSpace=wrap;html=1;fillStyle=hatch;fillColor=#000000;" vertex="1" parent="1">
          <mxGeometry x="481" y="340" width="20" height="20" as="geometry" />
        </mxCell>
        <mxCell id="DP3_oWpCl_bcBycyR9Li-89" value="" style="rounded=0;whiteSpace=wrap;html=1;" vertex="1" parent="1">
          <mxGeometry x="570" y="340" width="20" height="20" as="geometry" />
        </mxCell>
        <mxCell id="DP3_oWpCl_bcBycyR9Li-90" value="" style="rounded=0;whiteSpace=wrap;html=1;" vertex="1" parent="1">
          <mxGeometry x="461" y="280" width="20" height="20" as="geometry" />
        </mxCell>
        <mxCell id="DP3_oWpCl_bcBycyR9Li-91" value="" style="rounded=0;whiteSpace=wrap;html=1;" vertex="1" parent="1">
          <mxGeometry x="541" y="280" width="20" height="20" as="geometry" />
        </mxCell>
        <mxCell id="DP3_oWpCl_bcBycyR9Li-98" style="rounded=0;orthogonalLoop=1;jettySize=auto;html=1;entryX=0.5;entryY=0;entryDx=0;entryDy=0;exitX=0.5;exitY=1;exitDx=0;exitDy=0;" edge="1" parent="1" source="DP3_oWpCl_bcBycyR9Li-93" target="DP3_oWpCl_bcBycyR9Li-87">
          <mxGeometry relative="1" as="geometry" />
        </mxCell>
        <mxCell id="DP3_oWpCl_bcBycyR9Li-93" value="" style="rounded=0;whiteSpace=wrap;html=1;fillStyle=hatch;fillColor=#000000;" vertex="1" parent="1">
          <mxGeometry x="481" y="280" width="20" height="20" as="geometry" />
        </mxCell>
        <mxCell id="DP3_oWpCl_bcBycyR9Li-94" value="" style="rounded=0;whiteSpace=wrap;html=1;" vertex="1" parent="1">
          <mxGeometry x="521" y="280" width="20" height="20" as="geometry" />
        </mxCell>
        <mxCell id="DP3_oWpCl_bcBycyR9Li-99" style="rounded=0;orthogonalLoop=1;jettySize=auto;html=1;exitX=0.5;exitY=1;exitDx=0;exitDy=0;entryX=0.5;entryY=0;entryDx=0;entryDy=0;" edge="1" parent="1" source="DP3_oWpCl_bcBycyR9Li-95" target="DP3_oWpCl_bcBycyR9Li-84">
          <mxGeometry relative="1" as="geometry" />
        </mxCell>
        <mxCell id="DP3_oWpCl_bcBycyR9Li-95" value="" style="rounded=0;whiteSpace=wrap;html=1;fillStyle=hatch;fillColor=#000000;" vertex="1" parent="1">
          <mxGeometry x="501" y="280" width="20" height="20" as="geometry" />
        </mxCell>
        <mxCell id="DP3_oWpCl_bcBycyR9Li-96" value="内部节点" style="text;html=1;align=center;verticalAlign=middle;whiteSpace=wrap;rounded=0;" vertex="1" parent="1">
          <mxGeometry x="400" y="275" width="60" height="30" as="geometry" />
        </mxCell>
        <mxCell id="DP3_oWpCl_bcBycyR9Li-100" value="内部节点" style="text;html=1;align=center;verticalAlign=middle;whiteSpace=wrap;rounded=0;" vertex="1" parent="1">
          <mxGeometry x="390" y="75" width="80" height="25" as="geometry" />
        </mxCell>
      </root>
    </mxGraphModel>
  </diagram>
</mxfile>
